<svg id="magnifyingGlass" xmlns="http://www.w3.org/2000/svg" viewBox="0 0 343.65 343.65">
  <defs>
    <style>
      .cls-1 {
        fill: #fff;
        stroke: #ccc;
        stroke-miterlimit: 10;
        stroke-width: 8px;
      }
    </style>
  </defs>
  <title>magnifyingGlass</title>
  <g id="mainGlass">
    <circle class="cls-1" cx="171.83" cy="171.83" r="167.83"/>
    <circle class="cls-1" cx="171.83" cy="171.83" r="167.83"/>
    <circle class="cls-1" cx="116.42" cy="121.29" r="53.89"/>
    <path class="cls-1" d="M387,460.25a15.53,15.53,0,0,1-.1,21.88h0a15.53,15.53,0,0,1-21.88.1l-97.47-97.47c-6.59-6.6,5.15-5.15,11.16-11.16h0c6-6,4.22-17.41,10.82-10.82Z" transform="translate(-121.26 -211.26)"/>
    <path class="cls-1" d="M289.55,406.73l-22-22c-6.59-6.6,5.15-5.15,11.16-11.16h0c6-6,4.22-17.41,10.82-10.82l22,22Z" transform="translate(-121.26 -211.26)"/>
  </g>
  <path id="detail" class="cls-1" d="M213.56,356.67a34.12,34.12,0,0,1,0-48.25" transform="translate(-121.26 -211.26)"/>
</svg>
